<?xml version="1.0" standalone="no"?>
<!DOCTYPE svg PUBLIC "-//W3C//DTD SVG 1.1//EN" "http://www.w3.org/Graphics/SVG/1.1/DTD/svg11.dtd"><svg xmlns="http://www.w3.org/2000/svg" style="background-color:#FFF" width="500" height="500"><path stroke="black" fill="none" stroke-width="1" d="M345.9, 149.99L342.8, 150.52L339.85, 151.21L337.07, 152.05L334.44, 153.06L331.96, 154.22L329.63, 155.53L327.44, 157L325.4, 158.63L323.49, 160.4L321.72, 162.33L318.58, 166.64L315.96, 171.54L313.82, 177.04L317.37, 179.57L320.78, 182.24L324.02, 185.04L327.11, 188L330.02, 191.11L332.75, 194.39L335.3, 197.83L337.65, 201.45L340.32, 206.16L342.66, 210.95L344.64, 215.84L346.22, 220.84L347.39, 225.94L348.11, 231.17L348.35, 236.52L348.08, 242.01L347.62, 244.34L346.7, 246.18L345.26, 247.61L343.26, 248.75L339.68, 250.13L336.06, 251.16L332.41, 251.87L328.73, 252.29L325.03, 252.46L321.31, 252.41L313.89, 251.77L307.44, 250.74L301.16, 249.29L295.03, 247.44L289.03, 245.21L283.17, 242.63L277.44, 239.71L271.82, 236.48L266.3, 232.96L264.27, 231.47L262.47, 229.86L260.92, 228.15L259.6, 226.31L258.52, 224.35L257.66, 222.26L257.02, 220.02L256.6, 217.63L256.13, 211.68L256.27, 205.97L257.07, 200.5L258.55, 195.31L259.57, 192.82L260.78, 190.41L262.17, 188.08L263.77, 185.83L265.57, 183.66L267.58, 181.59L269.81, 179.6L272.25, 177.71L275.36, 175.82L278.74, 174.26L285.87, 171.28L285.62, 166.64L285.78, 162.1L286.36, 157.66L287.37, 153.33L288.81, 149.11L290.68, 145.02L293, 141.05L295.77, 137.23L299.22, 133.3L302.95, 129.8L306.92, 126.7L311.13, 123.97L315.56, 121.6L320.18, 119.55L324.98, 117.8L329.95, 116.32L334.32, 115.47L338.73, 114.75L341.37, 114.47L342.57, 114.58L343.67, 114.88L344.63, 115.41L345.44, 116.19L346.06, 117.25L346.47, 118.63L346.61, 120.06L346.48, 121.33L346.08, 122.44L345.44, 123.4L344.58, 124.23L343.52, 124.94L340.9, 126.03L329.03, 129.5L323.22, 131.5L317.66, 133.99L315.07, 135.46L312.64, 137.04L310.4, 138.74L308.32, 140.54L306.43, 142.46L304.71, 144.49L303.16, 146.63L301.79, 148.88L300.59, 151.23L299.57, 153.69L298.72, 156.26L298.05, 158.92L297.55, 161.69L297.23, 164.56L297.08, 167.53L297.1, 170.6L303.11, 171.74L304.84, 167.63L306.8, 163.73L309.02, 160.05L311.5, 156.61L314.27, 153.4L317.34, 150.45L320.74, 147.74L324.46, 145.3L327.82, 143.51L331.25, 142.03L334.75, 140.82L338.31, 139.83L345.56, 138.41L352.91, 137.45L355.27, 137.56L356.41, 137.92L357.45, 138.48L358.34, 139.27L359.05, 140.3L359.52, 141.58L359.7, 143.12L359.6, 144.49L359.3, 145.66L358.79, 146.64L358.1, 147.44L357.24, 148.08L356.23, 148.57L353.81, 149.14L345.9, 149.99"/><path stroke="black" fill="none" stroke-width="1" d="M287.83, 370.76L284.12, 359.4L280.56, 348.23L276.85, 337.27L272.71, 326.58L271.24, 323.46L269.53, 320.42L265.62, 314.53L261.34, 308.69L257.1, 302.7L248.56, 309.31L240.49, 315.85L239.8, 316.78L239.37, 318.03L239.13, 319.42L239.05, 320.76L239.16, 334.5L239.18, 341.36L238.99, 348.21L238.68, 351.13L238.01, 354.08L236.96, 356.86L235.49, 359.29L230.77, 365.19L225.84, 370.94L215.8, 382.29L214.74, 383.38L213.63, 384.25L212.49, 384.87L211.3, 385.23L210.09, 385.31L208.83, 385.09L207.55, 384.56L206.24, 383.68L205.18, 382.68L204.42, 381.59L203.97, 380.42L203.81, 379.18L203.96, 377.87L204.41, 376.51L205.17, 375.11L206.22, 373.67L214.02, 364.39L222.06, 355.33L224.1, 352.72L225.46, 349.95L226.19, 346.96L226.35, 343.66L226.21, 329.42L226.12, 315.18L226.28, 312.86L226.9, 310.87L228.04, 309.14L229.72, 307.58L239.13, 300.32L248.34, 292.8L250.57, 290.8L252.16, 289.07L253.14, 287.5L253.53, 285.97L253.32, 284.4L252.54, 282.66L251.21, 280.64L249.33, 278.25L246.84, 274.98L244.66, 271.59L242.83, 268.08L241.35, 264.45L240.24, 260.7L239.51, 256.81L239.19, 252.78L239.28, 248.61L239.54, 246.75L240.02, 245.11L240.72, 243.71L241.65, 242.52L242.81, 241.56L244.18, 240.82L245.78, 240.29L247.6, 239.97L250.96, 239.75L254.15, 239.86L257.17, 240.29L260.02, 241.01L262.7, 242L265.22, 243.23L267.58, 244.68L269.79, 246.33L271.85, 248.16L273.76, 250.14L277.15, 254.48L280, 259.15L282.32, 263.99L282.6, 265.15L282.54, 266.46L282.23, 267.87L281.74, 269.37L280.45, 272.46L279.25, 275.45L278.02, 277.86L276.33, 280.52L285.05, 285.72L289.36, 288.17L293.75, 290.4L295.47, 290.79L297.44, 290.67L301.51, 289.88L308.05, 288.33L311.31, 287.65L314.57, 287.37L316.64, 287.73L318.8, 288.67L320.72, 290.02L322.09, 291.61L334.72, 313.45L347.11, 335.43L347.73, 336.82L347.99, 338.1L347.94, 339.29L347.6, 340.38L347.04, 341.37L346.28, 342.27L344.35, 343.78L343.05, 344.44L341.76, 344.78L340.51, 344.82L339.31, 344.59L338.18, 344.09L337.12, 343.36L336.17, 342.41L335.32, 341.25L330.4, 332.93L325.63, 324.5L319.56, 314.02L313.61, 303.48L312.58, 302.01L311.43, 301.26L310.07, 301.14L308.41, 301.58L306.87, 302.01L305.27, 302.3L303.68, 302.6L302.15, 303.05L300.32, 303.67L298.55, 304.06L296.84, 304.24L295.18, 304.24L292, 303.74L288.96, 302.72L286.03, 301.32L283.16, 299.69L277.44, 296.39L274.03, 294.37L270.6, 292.4L269.59, 292.05L268.45, 291.94L267.17, 292.08L265.71, 292.51L267.94, 295.93L270.37, 299.18L274.55, 304.23L278.24, 309.51L281.52, 315.01L284.42, 320.69L286.99, 326.53L289.29, 332.51L291.36, 338.62L293.27, 344.81L295.37, 351.53L297.66, 358.2L302.34, 371.5L303.45, 375.3L303.75, 376.86L303.79, 378.3L303.56, 379.62L303.08, 380.8L302.37, 381.83L301.43, 382.71L300.27, 383.43L298.9, 383.97L297.49, 384.26L296.19, 384.24L295, 383.94L293.92, 383.39L292.96, 382.61L292.11, 381.64L290.77, 379.2L289.24, 375.01L287.83, 370.76"/><path stroke="black" fill="none" stroke-width="1" d="M232.32, 261.17L234.32, 264.38L236.07, 267.57L237.46, 270.77L238.39, 273.98L238.79, 277.21L238.54, 280.47L237.55, 283.76L236.75, 285.41L235.74, 287.08L232.46, 291.68L228.92, 296.12L225.16, 300.37L221.19, 304.39L215.42, 309.66L209.43, 314.63L203.24, 319.27L196.82, 323.56L190.18, 327.49L183.31, 331.03L176.2, 334.17L168.85, 336.89L164.75, 337.95L160.46, 338.51L156.11, 338.66L151.82, 338.51L149.57, 338.18L147.65, 337.52L146.06, 336.53L144.77, 335.22L143.76, 333.59L143.02, 331.63L142.54, 329.36L142.29, 326.77L142.24, 318.31L142.5, 314.18L142.94, 310.12L143.58, 306.13L144.42, 302.22L145.46, 298.39L146.72, 294.64L148.19, 290.99L149.88, 287.42L151.79, 283.94L153.94, 280.57L156.32, 277.3L158.95, 274.13L161.81, 271.07L164.93, 268.13L170.81, 263.31L176.96, 259.16L180.13, 257.36L183.36, 255.74L186.67, 254.32L190.04, 253.11L193.48, 252.11L196.98, 251.33L200.56, 250.78L204.21, 250.47L207.93, 250.4L211.72, 250.58L215.59, 251.03L219.53, 251.74L221.59, 252.3L223.49, 253.07L225.26, 254.03L226.89, 255.16L229.8, 257.9L232.32, 261.17"/><path stroke="black" fill="none" stroke-width="1" d="M161.43, 370.95L164.97, 367.79L168.38, 364.78L171.61, 361.78L174.61, 358.67L175.71, 356.98L176.48, 354.97L177.44, 350.67L177.71, 348.46L177.79, 346.21L177.87, 343.97L178.15, 341.77L178.99, 339.21L179.63, 338.12L180.42, 337.21L181.38, 336.49L182.51, 336L183.83, 335.77L185.34, 335.82L186.75, 336.1L188.01, 336.57L189.13, 337.22L190.06, 338.04L190.8, 339.01L191.32, 340.13L191.6, 341.4L191.62, 342.79L190.81, 351.38L190.1, 355.56L189.03, 359.58L187.46, 363.4L185.25, 366.96L183.88, 368.62L182.29, 370.2L180.49, 371.69L178.44, 373.08L175.79, 375.05L173.35, 377.36L168.56, 382.15L167.05, 383.37L165.62, 384.27L164.25, 384.83L162.94, 385.07L161.69, 384.99L160.49, 384.59L159.33, 383.87L158.22, 382.84L157.2, 381.57L156.51, 380.35L156.17, 379.15L156.16, 377.95L156.5, 376.72L157.19, 375.44L158.22, 374.1L159.61, 372.66L161.43, 370.95"/><path stroke="black" fill="none" stroke-width="1" d="M345.47, 150.08L342.44, 150.59L339.57, 151.27L336.84, 152.1L334.26, 153.09L331.82, 154.25L329.52, 155.55L327.36, 157.02L325.34, 158.64L323.45, 160.41L321.7, 162.33L318.58, 166.64L315.96, 171.54L313.82, 177.04L317.37, 179.57L320.78, 182.24L324.03, 185.04L327.11, 188L330.02, 191.11L332.75, 194.38L335.3, 197.83L337.65, 201.45L340.33, 206.16L342.66, 210.95L344.64, 215.84L346.22, 220.84L347.39, 225.94L348.11, 231.17L348.35, 236.52L348.08, 242.01L347.62, 244.34L346.7, 246.18L345.26, 247.61L343.26, 248.75L339.68, 250.13L336.06, 251.16L332.41, 251.87L328.73, 252.29L325.03, 252.46L321.32, 252.41L313.89, 251.77L307.45, 250.74L301.16, 249.29L295.03, 247.44L289.03, 245.21L283.17, 242.62L277.44, 239.71L271.82, 236.48L266.31, 232.96L264.27, 231.46L262.47, 229.86L260.92, 228.15L259.6, 226.31L258.52, 224.35L257.66, 222.25L257.02, 220.01L256.6, 217.63L256.13, 211.68L256.27, 205.97L257.07, 200.5L258.55, 195.31L259.57, 192.82L260.78, 190.41L262.18, 188.08L263.77, 185.83L265.57, 183.66L267.59, 181.58L269.81, 179.6L272.25, 177.7L275.36, 175.82L278.74, 174.25L285.87, 171.27L285.62, 166.64L285.78, 162.1L286.37, 157.66L287.37, 153.33L288.81, 149.11L290.68, 145.02L293, 141.05L295.77, 137.23L299.23, 133.3L302.95, 129.8L306.93, 126.69L311.14, 123.97L315.56, 121.59L320.18, 119.55L324.99, 117.79L329.95, 116.32L334.32, 115.47L338.74, 114.75L341.37, 114.47L342.58, 114.58L343.67, 114.88L344.64, 115.41L345.44, 116.19L346.06, 117.25L346.47, 118.63L346.61, 120.06L346.48, 121.33L346.08, 122.44L345.44, 123.4L344.58, 124.23L343.53, 124.94L340.9, 126.03L329.03, 129.5L323.22, 131.5L317.66, 133.99L315.07, 135.46L312.64, 137.04L310.4, 138.73L308.33, 140.54L306.43, 142.46L304.71, 144.49L303.16, 146.63L301.79, 148.88L300.59, 151.23L299.57, 153.69L298.72, 156.26L298.05, 158.92L297.55, 161.69L297.23, 164.56L297.08, 167.53L297.1, 170.6L303.11, 171.74L304.84, 167.63L306.8, 163.73L309.02, 160.05L311.5, 156.61L314.27, 153.4L317.34, 150.45L320.74, 147.74L324.46, 145.3L327.82, 143.51L331.25, 142.03L334.75, 140.82L338.31, 139.83L345.56, 138.41L352.91, 137.45L355.27, 137.56L356.41, 137.92L357.45, 138.48L358.34, 139.27L359.05, 140.3L359.52, 141.58L359.7, 143.12L359.6, 144.49L359.3, 145.66L358.79, 146.64L358.1, 147.44L357.24, 148.08L356.23, 148.57L353.81, 149.14L349.8, 149.59L345.47, 150.08"/><path stroke="black" fill="none" stroke-width="1" d="M298.47, 206.09L298.78, 203.4L299.42, 201.1L300.4, 199.2L301.69, 197.69L303.29, 196.58L305.18, 195.87L307.36, 195.56L309.81, 195.65L312.5, 196.27L315.17, 197.48L317.71, 199.19L320.05, 201.29L322.07, 203.69L323.69, 206.29L324.82, 208.99L325.35, 211.7L325.29, 214.24L324.74, 216.5L323.74, 218.43L322.34, 219.99L320.58, 221.15L318.52, 221.85L316.21, 222.06L313.68, 221.73L310.7, 220.84L308.02, 219.65L305.65, 218.15L303.59, 216.35L301.83, 214.24L300.4, 211.83L299.28, 209.11L298.47, 206.09"/><path stroke="black" fill="none" stroke-width="1" d="M287.66, 370.4L284.05, 359.25L280.54, 348.18L276.85, 337.27L272.72, 326.58L271.24, 323.46L269.54, 320.42L265.62, 314.52L261.34, 308.69L257.1, 302.7L248.56, 309.31L240.49, 315.85L239.8, 316.78L239.37, 318.03L239.13, 319.42L239.05, 320.76L239.16, 334.49L239.18, 341.36L239, 348.21L238.69, 351.13L238.01, 354.08L236.96, 356.86L235.5, 359.29L230.77, 365.19L225.84, 370.94L215.8, 382.29L214.74, 383.38L213.63, 384.25L212.49, 384.87L211.3, 385.23L210.09, 385.31L208.83, 385.09L207.55, 384.56L206.24, 383.68L205.18, 382.68L204.42, 381.59L203.97, 380.42L203.81, 379.17L203.96, 377.87L204.41, 376.51L205.17, 375.11L206.23, 373.67L214.02, 364.39L222.06, 355.33L224.1, 352.72L225.46, 349.95L226.19, 346.96L226.35, 343.66L226.21, 329.42L226.12, 315.17L226.28, 312.86L226.9, 310.87L228.04, 309.14L229.72, 307.58L239.13, 300.32L248.34, 292.8L250.57, 290.8L252.16, 289.07L253.14, 287.5L253.53, 285.97L253.32, 284.4L252.54, 282.65L251.21, 280.64L249.33, 278.25L246.84, 274.97L244.67, 271.58L242.83, 268.08L241.35, 264.45L240.24, 260.7L239.52, 256.81L239.19, 252.78L239.28, 248.61L239.54, 246.74L240.02, 245.11L240.73, 243.7L241.65, 242.52L242.81, 241.56L244.18, 240.82L245.78, 240.29L247.6, 239.97L250.96, 239.75L254.15, 239.86L257.17, 240.29L260.02, 241.01L262.7, 242L265.22, 243.23L267.58, 244.68L269.79, 246.33L271.85, 248.16L273.76, 250.14L277.15, 254.47L280, 259.15L282.33, 263.99L282.6, 265.15L282.55, 266.45L282.24, 267.87L281.74, 269.37L280.45, 272.46L279.25, 275.45L278.02, 277.86L276.33, 280.51L285.05, 285.72L289.36, 288.17L293.75, 290.39L295.47, 290.79L297.44, 290.67L301.51, 289.88L308.05, 288.33L311.31, 287.64L314.57, 287.37L316.64, 287.73L318.8, 288.67L320.72, 290.02L322.09, 291.61L334.72, 313.45L347.11, 335.43L347.73, 336.82L347.99, 338.1L347.94, 339.29L347.61, 340.38L347.04, 341.37L346.28, 342.27L344.35, 343.78L343.05, 344.44L341.76, 344.78L340.51, 344.82L339.31, 344.59L338.18, 344.09L337.12, 343.36L336.17, 342.41L335.32, 341.25L330.4, 332.92L325.64, 324.5L319.56, 314.02L313.61, 303.48L312.58, 302.01L311.43, 301.26L310.07, 301.14L308.41, 301.58L306.87, 302.01L305.27, 302.3L303.68, 302.6L302.15, 303.05L300.32, 303.67L298.55, 304.06L296.84, 304.24L295.19, 304.24L292, 303.74L288.97, 302.71L286.03, 301.32L283.16, 299.69L277.44, 296.39L274.03, 294.37L270.6, 292.4L269.59, 292.05L268.46, 291.94L267.17, 292.08L265.71, 292.51L267.94, 295.93L270.37, 299.18L274.55, 304.23L278.25, 309.51L281.52, 315.01L284.42, 320.69L286.99, 326.53L289.29, 332.51L291.37, 338.62L293.27, 344.81L295.38, 351.53L297.66, 358.2L302.34, 371.5L303.45, 375.3L303.75, 376.86L303.79, 378.3L303.56, 379.61L303.09, 380.79L302.37, 381.83L301.43, 382.71L300.27, 383.43L298.9, 383.97L297.49, 384.26L296.19, 384.24L295, 383.94L293.92, 383.39L292.96, 382.61L292.11, 381.64L290.77, 379.2L289.22, 374.96L287.66, 370.4"/><path stroke="black" fill="none" stroke-width="1" d="M232.52, 261.47L234.46, 264.58L236.16, 267.7L237.51, 270.85L238.42, 274.02L238.8, 277.23L238.54, 280.47L237.55, 283.76L236.75, 285.41L235.74, 287.08L232.46, 291.68L228.92, 296.12L225.16, 300.37L221.19, 304.39L215.42, 309.66L209.43, 314.63L203.24, 319.27L196.82, 323.56L190.18, 327.49L183.31, 331.03L176.2, 334.17L168.85, 336.89L164.75, 337.95L160.47, 338.51L156.12, 338.66L151.82, 338.51L149.57, 338.18L147.66, 337.52L146.06, 336.53L144.77, 335.22L143.76, 333.59L143.02, 331.63L142.54, 329.36L142.29, 326.76L142.24, 318.31L142.5, 314.18L142.94, 310.12L143.58, 306.13L144.42, 302.22L145.46, 298.39L146.72, 294.64L148.19, 290.98L149.88, 287.42L151.8, 283.94L153.94, 280.57L156.32, 277.3L158.95, 274.13L161.81, 271.07L164.93, 268.12L170.81, 263.31L176.96, 259.16L180.13, 257.36L183.36, 255.74L186.67, 254.32L190.04, 253.11L193.48, 252.11L196.99, 251.33L200.56, 250.78L204.21, 250.47L207.93, 250.4L211.73, 250.58L215.59, 251.03L219.53, 251.74L221.59, 252.3L223.5, 253.07L225.27, 254.04L226.91, 255.19L229.89, 258.02L232.52, 261.47"/><path stroke="black" fill="none" stroke-width="1" d="M161.69, 370.71L168.42, 364.75L171.62, 361.78L174.61, 358.67L175.71, 356.98L176.48, 354.97L177.44, 350.67L177.71, 348.46L177.79, 346.21L177.87, 343.97L178.15, 341.77L178.99, 339.21L179.63, 338.12L180.42, 337.21L181.38, 336.49L182.51, 336L183.83, 335.77L185.34, 335.82L186.75, 336.1L188.02, 336.57L189.13, 337.22L190.06, 338.03L190.8, 339.01L191.32, 340.13L191.6, 341.4L191.62, 342.79L190.81, 351.38L190.11, 355.56L189.03, 359.58L187.46, 363.4L185.25, 366.96L183.88, 368.62L182.29, 370.2L180.49, 371.69L178.44, 373.08L175.79, 375.05L173.35, 377.36L168.56, 382.15L167.05, 383.37L165.62, 384.26L164.25, 384.83L162.95, 385.07L161.69, 384.99L160.49, 384.59L159.33, 383.87L158.22, 382.83L157.2, 381.57L156.52, 380.35L156.17, 379.15L156.16, 377.94L156.5, 376.71L157.19, 375.44L158.22, 374.09L159.61, 372.66L160.55, 371.78L161.69, 370.71"/><path stroke="black" fill="none" stroke-width="1" d="M298.45, 205.7L298.76, 203.13L299.41, 200.93L300.39, 199.1L301.69, 197.64L303.29, 196.56L305.18, 195.87L307.36, 195.56L309.81, 195.65L312.5, 196.27L315.17, 197.48L317.71, 199.19L320.05, 201.29L322.07, 203.69L323.69, 206.29L324.82, 208.99L325.35, 211.7L325.29, 214.24L324.74, 216.5L323.74, 218.43L322.34, 219.99L320.58, 221.15L318.52, 221.85L316.21, 222.06L313.68, 221.73L310.7, 220.84L308.02, 219.64L305.65, 218.13L303.58, 216.3L301.83, 214.15L300.39, 211.67L299.26, 208.85L298.45, 205.7"/></svg>