<svg version="1.1" id="Layer_1" xmlns="http://www.w3.org/2000/svg" xmlns:xlink="http://www.w3.org/1999/xlink" x="0px" y="0px"
	 width="100%" viewBox="0 0 500 500" enable-background="new 0 0 500 500" xml:space="preserve">
<path fill="#000000" opacity="1.000000" stroke="none" 
	d="
M228.000000,501.000000 
	C152.000015,501.000000 76.500038,501.000000 1.000041,501.000000 
	C1.000027,334.333405 1.000027,167.666779 1.000013,1.000130 
	C167.666565,1.000087 334.333130,1.000087 500.999756,1.000043 
	C500.999847,167.666534 500.999847,334.333069 500.999939,500.999817 
	C410.166656,501.000000 319.333344,501.000000 228.000000,501.000000 
M345.897461,149.990829 
	C348.535522,149.709991 351.177429,149.460785 353.810699,149.140564 
	C357.359009,148.709061 359.744263,147.042557 359.697174,143.124130 
	C359.643402,138.647171 356.012939,137.108078 352.905792,137.454086 
	C343.073151,138.548965 333.293854,140.085281 324.463989,145.302795 
	C314.059235,151.450912 307.421082,160.497177 303.113800,171.737350 
	C300.997681,171.336655 299.131714,170.983322 297.101410,170.598892 
	C296.512146,153.977539 303.339722,141.501266 317.663879,133.992508 
	C324.835754,130.232986 333.060974,128.418915 340.901794,126.026512 
	C344.798798,124.837456 347.251038,122.679878 346.469025,118.626671 
	C345.677582,114.524925 342.380493,114.022079 338.736053,114.754478 
	C335.819397,115.340637 332.812378,115.551872 329.949493,116.318123 
	C316.512665,119.914429 304.607788,126.156288 295.770447,137.228180 
	C287.779785,147.239334 284.665100,158.793915 285.868835,171.275391 
	C281.098572,173.472778 276.163849,174.879135 272.253876,177.703918 
	C258.625671,187.549698 254.567001,201.496231 256.600372,217.625259 
	C257.429657,224.203217 260.542969,229.104813 266.305908,232.961029 
	C280.865875,242.703674 296.492767,249.610825 313.887054,251.772964 
	C323.778381,253.002472 333.775940,252.936203 343.263733,248.745728 
	C346.329468,247.391693 347.751251,245.493835 348.081573,242.012482 
	C349.488220,227.186188 345.197693,213.886917 337.653381,201.450546 
	C331.645874,191.547531 323.487579,183.618683 313.819336,177.036728 
	C318.886108,161.608673 328.931793,152.384811 345.897461,149.990829 
M287.831085,370.759369 
	C288.800598,373.578094 289.649689,376.445770 290.769562,379.203430 
	C292.232849,382.806763 295.002502,385.177002 298.898132,383.970825 
	C302.812836,382.758728 304.631836,379.603180 303.450256,375.297150 
	C303.101257,374.025269 302.763916,372.746948 302.338318,371.499878 
	C299.303284,362.606812 295.916626,353.818146 293.268707,344.811951 
	C288.380035,328.184296 282.186340,312.313080 270.371460,299.180450 
	C268.570465,297.178558 267.249786,294.744598 265.706970,292.510468 
	C267.777710,291.743011 269.332977,291.780914 270.602905,292.402100 
	C272.965485,293.557800 275.104462,295.162567 277.437805,296.387482 
	C285.164185,300.443512 292.213287,306.982910 302.153503,303.050507 
	C304.124268,302.270844 306.419586,302.323975 308.410309,301.579010 
	C310.864197,300.660706 312.273315,301.014130 313.613770,303.479126 
	C317.468475,310.567566 321.613007,317.498230 325.635468,324.495575 
	C328.851410,330.089905 331.895355,335.791534 335.324036,341.251892 
	C337.413605,344.579620 340.854889,345.972229 344.354095,343.779938 
	C347.175903,342.011993 349.284058,339.264923 347.108765,335.429382 
	C338.810547,320.797821 330.706970,306.051056 322.089966,291.610260 
	C320.771362,289.400574 317.141907,287.389801 314.568024,287.373474 
	C310.224762,287.345886 305.891541,289.103363 301.513672,289.883392 
	C298.935730,290.342712 295.816345,291.359253 293.747009,290.394714 
	C287.818268,287.631378 282.301056,283.985107 276.326141,280.514069 
	C277.500427,278.528625 278.689606,277.097870 279.250549,275.452850 
	C280.551605,271.637360 283.554474,266.859711 282.325195,263.988861 
	C276.778168,251.034286 266.024414,237.866455 247.598343,239.965958 
	C242.451828,240.552368 239.665512,243.318756 239.283279,248.610565 
	C238.465927,259.927002 242.267914,269.653534 249.330032,278.253021 
	C255.055389,285.224731 255.125412,287.018738 248.342072,292.799591 
	C242.312744,297.937836 236.025726,302.782928 229.719711,307.582977 
	C227.096069,309.580048 226.037155,311.827240 226.120605,315.174683 
	C226.357193,324.665192 226.039322,334.170990 226.345932,343.657684 
	C226.496017,348.301544 225.253769,351.907776 222.063858,355.332062 
	C216.561111,361.239105 211.397980,367.469116 206.224884,373.674133 
	C203.004150,377.537354 203.013779,381.142639 206.237656,383.683777 
	C209.777069,386.473602 213.021713,385.487854 215.803711,382.290802 
	C222.431503,374.674194 229.373657,367.296722 235.495789,359.292572 
	C237.727402,356.374908 238.812927,351.995239 238.996902,348.213287 
	C239.441101,339.083008 238.974121,329.911224 239.053619,320.757721 
	C239.068161,319.082794 239.393417,316.790192 240.490143,315.850464 
	C245.714554,311.373871 251.254929,307.265991 257.096832,302.703613 
	C262.572754,310.872437 269.136200,318.097931 272.716003,326.582306 
	C278.648712,340.643250 282.661194,355.514404 287.831085,370.759369 
M232.316772,261.172943 
	C229.185638,256.494171 225.234680,252.955475 219.528015,251.737854 
	C198.330338,247.214951 180.283432,254.454514 164.929642,268.124512 
	C147.631500,283.525665 141.205688,303.893768 142.294388,326.763794 
	C142.643295,334.093140 145.361542,338.073120 151.818985,338.505981 
	C157.458633,338.884033 163.558716,338.664032 168.847260,336.892670 
	C188.779602,330.216400 206.062592,318.846893 221.192169,304.385590 
	C226.614334,299.202911 231.540863,293.302368 235.737183,287.084045 
	C241.769638,278.144806 237.932968,269.726288 232.316772,261.172943 
M161.426956,370.952820 
	C160.821686,371.522797 160.214783,372.091034 159.611343,372.662964 
	C155.437393,376.619232 155.056961,379.399597 158.218246,382.834595 
	C161.143723,386.013397 164.451950,385.847107 168.556580,382.151581 
	C171.886276,379.153778 174.708298,375.391357 178.444412,373.083069 
	C190.005905,365.939850 190.722641,354.311829 191.619873,342.792206 
	C191.922409,338.907745 189.255875,336.314148 185.339081,335.818176 
	C181.050186,335.275055 178.906357,338.083679 178.154297,341.769440 
	C177.563950,344.662689 178.001923,347.762451 177.442337,350.666260 
	C176.906860,353.445038 176.357712,356.696381 174.607239,358.668243 
	C170.794586,362.963135 166.213715,366.576080 161.426956,370.952820 
z"/>
<path fill="#F1F0EC" opacity="1.000000" stroke="none" 
	d="
M345.465729,150.077881 
	C328.931793,152.384811 318.886108,161.608673 313.819336,177.036728 
	C323.487579,183.618683 331.645874,191.547531 337.653381,201.450546 
	C345.197693,213.886917 349.488220,227.186188 348.081573,242.012482 
	C347.751251,245.493835 346.329468,247.391693 343.263733,248.745728 
	C333.775940,252.936203 323.778381,253.002472 313.887054,251.772964 
	C296.492767,249.610825 280.865875,242.703674 266.305908,232.961029 
	C260.542969,229.104813 257.429657,224.203217 256.600372,217.625259 
	C254.567001,201.496231 258.625671,187.549698 272.253876,177.703918 
	C276.163849,174.879135 281.098572,173.472778 285.868835,171.275391 
	C284.665100,158.793915 287.779785,147.239334 295.770447,137.228180 
	C304.607788,126.156288 316.512665,119.914429 329.949493,116.318123 
	C332.812378,115.551872 335.819397,115.340637 338.736053,114.754478 
	C342.380493,114.022079 345.677582,114.524925 346.469025,118.626671 
	C347.251038,122.679878 344.798798,124.837456 340.901794,126.026512 
	C333.060974,128.418915 324.835754,130.232986 317.663879,133.992508 
	C303.339722,141.501266 296.512146,153.977539 297.101410,170.598892 
	C299.131714,170.983322 300.997681,171.336655 303.113800,171.737350 
	C307.421082,160.497177 314.059235,151.450912 324.463989,145.302795 
	C333.293854,140.085281 343.073151,138.548965 352.905792,137.454086 
	C356.012939,137.108078 359.643402,138.647171 359.697174,143.124130 
	C359.744263,147.042557 357.359009,148.709061 353.810699,149.140564 
	C351.177429,149.460785 348.535522,149.709991 345.465729,150.077881 
M298.472931,206.088593 
	C300.190552,214.563095 305.316559,219.759171 313.684906,221.727936 
	C320.649780,223.366516 325.900085,218.808319 325.350555,211.702637 
	C324.797760,204.554993 316.939392,196.435867 309.809448,195.645782 
	C302.932373,194.883713 298.815308,198.379150 298.472931,206.088593 
z"/>
<path fill="#EFEEEA" opacity="1.000000" stroke="none" 
	d="
M287.656860,370.401794 
	C282.661194,355.514404 278.648712,340.643250 272.716003,326.582306 
	C269.136200,318.097931 262.572754,310.872437 257.096832,302.703613 
	C251.254929,307.265991 245.714554,311.373871 240.490143,315.850464 
	C239.393417,316.790192 239.068161,319.082794 239.053619,320.757721 
	C238.974121,329.911224 239.441101,339.083008 238.996902,348.213287 
	C238.812927,351.995239 237.727402,356.374908 235.495789,359.292572 
	C229.373657,367.296722 222.431503,374.674194 215.803711,382.290802 
	C213.021713,385.487854 209.777069,386.473602 206.237656,383.683777 
	C203.013779,381.142639 203.004150,377.537354 206.224884,373.674133 
	C211.397980,367.469116 216.561111,361.239105 222.063858,355.332062 
	C225.253769,351.907776 226.496017,348.301544 226.345932,343.657684 
	C226.039322,334.170990 226.357193,324.665192 226.120605,315.174683 
	C226.037155,311.827240 227.096069,309.580048 229.719711,307.582977 
	C236.025726,302.782928 242.312744,297.937836 248.342072,292.799591 
	C255.125412,287.018738 255.055389,285.224731 249.330032,278.253021 
	C242.267914,269.653534 238.465927,259.927002 239.283279,248.610565 
	C239.665512,243.318756 242.451828,240.552368 247.598343,239.965958 
	C266.024414,237.866455 276.778168,251.034286 282.325195,263.988861 
	C283.554474,266.859711 280.551605,271.637360 279.250549,275.452850 
	C278.689606,277.097870 277.500427,278.528625 276.326141,280.514069 
	C282.301056,283.985107 287.818268,287.631378 293.747009,290.394714 
	C295.816345,291.359253 298.935730,290.342712 301.513672,289.883392 
	C305.891541,289.103363 310.224762,287.345886 314.568024,287.373474 
	C317.141907,287.389801 320.771362,289.400574 322.089966,291.610260 
	C330.706970,306.051056 338.810547,320.797821 347.108765,335.429382 
	C349.284058,339.264923 347.175903,342.011993 344.354095,343.779938 
	C340.854889,345.972229 337.413605,344.579620 335.324036,341.251892 
	C331.895355,335.791534 328.851410,330.089905 325.635468,324.495575 
	C321.613007,317.498230 317.468475,310.567566 313.613770,303.479126 
	C312.273315,301.014130 310.864197,300.660706 308.410309,301.579010 
	C306.419586,302.323975 304.124268,302.270844 302.153503,303.050507 
	C292.213287,306.982910 285.164185,300.443512 277.437805,296.387482 
	C275.104462,295.162567 272.965485,293.557800 270.602905,292.402100 
	C269.332977,291.780914 267.777710,291.743011 265.706970,292.510468 
	C267.249786,294.744598 268.570465,297.178558 270.371460,299.180450 
	C282.186340,312.313080 288.380035,328.184296 293.268707,344.811951 
	C295.916626,353.818146 299.303284,362.606812 302.338318,371.499878 
	C302.763916,372.746948 303.101257,374.025269 303.450256,375.297150 
	C304.631836,379.603180 302.812836,382.758728 298.898132,383.970825 
	C295.002502,385.177002 292.232849,382.806763 290.769562,379.203430 
	C289.649689,376.445770 288.800598,373.578094 287.656860,370.401794 
z"/>
<path fill="#F3F2EE" opacity="1.000000" stroke="none" 
	d="
M232.522552,261.473877 
	C237.932968,269.726288 241.769638,278.144806 235.737183,287.084045 
	C231.540863,293.302368 226.614334,299.202911 221.192169,304.385590 
	C206.062592,318.846893 188.779602,330.216400 168.847260,336.892670 
	C163.558716,338.664032 157.458633,338.884033 151.818985,338.505981 
	C145.361542,338.073120 142.643295,334.093140 142.294388,326.763794 
	C141.205688,303.893768 147.631500,283.525665 164.929642,268.124512 
	C180.283432,254.454514 198.330338,247.214951 219.528015,251.737854 
	C225.234680,252.955475 229.185638,256.494171 232.522552,261.473877 
z"/>
<path fill="#EEEDEA" opacity="1.000000" stroke="none" 
	d="
M161.686890,370.710266 
	C166.213715,366.576080 170.794586,362.963135 174.607239,358.668243 
	C176.357712,356.696381 176.906860,353.445038 177.442337,350.666260 
	C178.001923,347.762451 177.563950,344.662689 178.154297,341.769440 
	C178.906357,338.083679 181.050186,335.275055 185.339081,335.818176 
	C189.255875,336.314148 191.922409,338.907745 191.619873,342.792206 
	C190.722641,354.311829 190.005905,365.939850 178.444412,373.083069 
	C174.708298,375.391357 171.886276,379.153778 168.556580,382.151581 
	C164.451950,385.847107 161.143723,386.013397 158.218246,382.834595 
	C155.056961,379.399597 155.437393,376.619232 159.611343,372.662964 
	C160.214783,372.091034 160.821686,371.522797 161.686890,370.710266 
z"/>
<path fill="#050404" opacity="1.000000" stroke="none" 
	d="
M298.452820,205.696686 
	C298.815308,198.379150 302.932373,194.883713 309.809448,195.645782 
	C316.939392,196.435867 324.797760,204.554993 325.350555,211.702637 
	C325.900085,218.808319 320.649780,223.366516 313.684906,221.727936 
	C305.316559,219.759171 300.190552,214.563095 298.452820,205.696686 
z"/>
</svg>