<svg width="320" height="320" viewBox="0 0 320 320" fill="none" xmlns="http://www.w3.org/2000/svg">
  <rect width="320" height="320" rx="64" fill="#05060A"/>
  <g transform="translate(64 70)" fill="#F6F8FB">
    <ellipse cx="60" cy="60" rx="34" ry="32"/>
    <ellipse cx="136" cy="106" rx="44" ry="40"/>
    <ellipse cx="166" cy="66" rx="22" ry="20"/>
    <path d="M86 82c18 4 38 10 52 20 10 7 22 8 32 0l10-8c6-5 15-4 20 2 5 6 4 15-2 20l-11 9c-18 15-44 17-67 6l-58-28c-7-3-10-12-7-19 3-7 12-10 19-7Z"/>
    <path d="M87 26c-3-5-2-12 3-15l18-12c6-4 14-2 18 4 4 6 2 14-4 18l-18 12c-5 4-12 2-17-3Z"/>
    <path d="M130 14c-1-6 3-12 9-13l22-4c7-1 13 3 14 10 1 6-3 12-10 13l-22 4c-6 1-12-3-13-10Z"/>
    <path d="M42 78c-6-2-9-8-8-14l4-19c2-7 8-10 14-9 7 2 10 8 9 15l-3 18c-2 7-8 11-16 9Z"/>
    <path d="M96 148c-1 7-7 12-14 11l-20-3c-7-1-12-7-11-14 1-7 7-12 14-11l20 3c7 1 12 7 11 14Z"/>
    <path d="M152 170c0 7-5 13-12 13l-20 1c-7 0-13-6-12-13 0-7 6-13 13-12l20-1c7 0 12 6 11 12Z"/>
    <path d="M190 144c3 6 1 14-5 17l-18 9c-6 3-14 1-17-5-3-6-1-14 5-17l18-9c6-3 14-1 17 5Z"/>
  </g>
</svg>
