<svg width="320" height="320" viewBox="0 0 320 320" fill="none" xmlns="http://www.w3.org/2000/svg">
  <rect width="320" height="320" rx="48" fill="#05060A"/>
  <path d="M122.8 128.4c0-17.7 15.3-32 34.2-32s34.2 14.3 34.2 32c0 8.4-3.4 16.1-9 21.8 14.8 2.1 26.1 14.7 26.1 29.9 0 6.9-2.5 13.3-6.7 18.4l21.7 9.9c5.6 2.5 8.1 9.1 5.5 15-2.6 5.8-9.2 8.4-14.8 5.9l-27.9-12.7c-7.3 6.9-17.7 11.2-29 11.2h-38.6c-5.2 0-10-2.3-12.9-6l-25-32.5c-4.6-6-3.4-14.7 2.7-19.4 6-4.6 14.7-3.4 19.4 2.7l16.8 21.8h37.6c9.7 0 17.7-6.5 17.7-14.4 0-7.9-7.9-14.4-17.7-14.4h-2.7c-4.7 0-9.2-1.9-12.5-5.3l-14.3-14.7c-5.5-5.7-8.9-13.4-8.9-21.6z" fill="white"/>
  <circle cx="193" cy="121" r="17" fill="#05060A"/>
  <rect x="137" y="93" width="12" height="26" rx="6" fill="white" transform="rotate(-22 137 93)"/>
  <rect x="174" y="93" width="12" height="26" rx="6" fill="white" transform="rotate(22 174 93)"/>
</svg>
