<?xml version="1.0" encoding="UTF-8"?>
<svg id="Layer_1" data-name="Layer 1" xmlns="http://www.w3.org/2000/svg" viewBox="0 0 500 500">
  <defs>
    <style>
      .cls-1 {
        fill: #eeedea;
      }

      .cls-2 {
        fill: #050404;
      }

      .cls-3 {
        fill: #f1f0ec;
      }

      .cls-4 {
        fill: #efeeea;
      }

      .cls-5 {
        fill: #f3f2ee;
      }
    </style>
  </defs>
  <path d="M227,500H0C0,333.33,0,166.67,0,0c166.67,0,333.33,0,500,0,0,166.67,0,333.33,0,500-90.83,0-181.67,0-273,0M344.9,148.99c2.64-.28,5.28-.53,7.91-.85,3.55-.43,5.93-2.1,5.89-6.02-.05-4.48-3.68-6.02-6.79-5.67-9.83,1.09-19.61,2.63-28.44,7.85-10.4,6.15-17.04,15.19-21.35,26.43-2.12-.4-3.98-.75-6.01-1.14-.59-16.62,6.24-29.1,20.56-36.61,7.17-3.76,15.4-5.57,23.24-7.97,3.9-1.19,6.35-3.35,5.57-7.4-.79-4.1-4.09-4.6-7.73-3.87-2.92.59-5.92.8-8.79,1.56-13.44,3.6-25.34,9.84-34.18,20.91-7.99,10.01-11.11,21.57-9.9,34.05-4.77,2.2-9.7,3.6-13.61,6.43-13.63,9.85-17.69,23.79-15.65,39.92.83,6.58,3.94,11.48,9.71,15.34,14.56,9.74,30.19,16.65,47.58,18.81,9.89,1.23,19.89,1.16,29.38-3.03,3.07-1.35,4.49-3.25,4.82-6.73,1.41-14.83-2.88-28.13-10.43-40.56-6.01-9.9-14.17-17.83-23.83-24.41,5.07-15.43,15.11-24.65,32.08-27.05M286.83,369.76c.97,2.82,1.82,5.69,2.94,8.44,1.46,3.6,4.23,5.97,8.13,4.77,3.91-1.21,5.73-4.37,4.55-8.67-.35-1.27-.69-2.55-1.11-3.8-3.04-8.89-6.42-17.68-9.07-26.69-4.89-16.63-11.08-32.5-22.9-45.63-1.8-2-3.12-4.44-4.66-6.67,2.07-.77,3.63-.73,4.9-.11,2.36,1.16,4.5,2.76,6.83,3.99,7.73,4.06,14.78,10.6,24.72,6.66,1.97-.78,4.27-.73,6.26-1.47,2.45-.92,3.86-.56,5.2,1.9,3.85,7.09,8,14.02,12.02,21.02,3.22,5.59,6.26,11.3,9.69,16.76,2.09,3.33,5.53,4.72,9.03,2.53,2.82-1.77,4.93-4.52,2.75-8.35-8.3-14.63-16.4-29.38-25.02-43.82-1.32-2.21-4.95-4.22-7.52-4.24-4.34-.03-8.68,1.73-13.05,2.51-2.58.46-5.7,1.48-7.77.51-5.93-2.76-11.45-6.41-17.42-9.88,1.17-1.99,2.36-3.42,2.92-5.06,1.3-3.82,4.3-8.59,3.07-11.46-5.55-12.95-16.3-26.12-34.73-24.02-5.15.59-7.93,3.35-8.32,8.64-.82,11.32,2.98,21.04,10.05,29.64,5.73,6.97,5.8,8.77-.99,14.55-6.03,5.14-12.32,9.98-18.62,14.78-2.62,2-3.68,4.24-3.6,7.59.24,9.49-.08,19,.23,28.48.15,4.64-1.09,8.25-4.28,11.67-5.5,5.91-10.67,12.14-15.84,18.34-3.22,3.86-3.21,7.47.01,10.01,3.54,2.79,6.78,1.8,9.57-1.39,6.63-7.62,13.57-14.99,19.69-23,2.23-2.92,3.32-7.3,3.5-11.08.44-9.13-.02-18.3.06-27.46.01-1.67.34-3.97,1.44-4.91,5.22-4.48,10.76-8.58,16.61-13.15,5.48,8.17,12.04,15.39,15.62,23.88,5.93,14.06,9.95,28.93,15.12,44.18M231.32,260.17c-3.13-4.68-7.08-8.22-12.79-9.44-21.2-4.52-39.24,2.72-54.6,16.39-17.3,15.4-23.72,35.77-22.64,58.64.35,7.33,3.07,11.31,9.52,11.74,5.64.38,11.74.16,17.03-1.61,19.93-6.68,37.22-18.05,52.34-32.51,5.42-5.18,10.35-11.08,14.55-17.3,6.03-8.94,2.2-17.36-3.42-25.91M160.43,369.95c-.61.57-1.21,1.14-1.82,1.71-4.17,3.96-4.55,6.74-1.39,10.17,2.93,3.18,6.23,3.01,10.34-.68,3.33-3,6.15-6.76,9.89-9.07,11.56-7.14,12.28-18.77,13.18-30.29.3-3.88-2.36-6.48-6.28-6.97-4.29-.54-6.43,2.27-7.18,5.95-.59,2.89-.15,5.99-.71,8.9-.54,2.78-1.08,6.03-2.84,8-3.81,4.29-8.39,7.91-13.18,12.28Z"/>
  <path class="cls-3" d="M344.47,149.08c-16.53,2.31-26.58,11.53-31.65,26.96,9.67,6.58,17.83,14.51,23.83,24.41,7.54,12.44,11.83,25.74,10.43,40.56-.33,3.48-1.75,5.38-4.82,6.73-9.49,4.19-19.49,4.26-29.38,3.03-17.39-2.16-33.02-9.07-47.58-18.81-5.76-3.86-8.88-8.76-9.71-15.34-2.03-16.13,2.03-30.08,15.65-39.92,3.91-2.82,8.84-4.23,13.61-6.43-1.2-12.48,1.91-24.04,9.9-34.05,8.84-11.07,20.74-17.31,34.18-20.91,2.86-.77,5.87-.98,8.79-1.56,3.64-.73,6.94-.23,7.73,3.87.78,4.05-1.67,6.21-5.57,7.4-7.84,2.39-16.07,4.21-23.24,7.97-14.32,7.51-21.15,19.99-20.56,36.61,2.03.38,3.9.74,6.01,1.14,4.31-11.24,10.95-20.29,21.35-26.43,8.83-5.22,18.61-6.75,28.44-7.85,3.11-.35,6.74,1.19,6.79,5.67.05,3.92-2.34,5.58-5.89,6.02-2.63.32-5.28.57-8.34.94M297.47,205.09c1.72,8.47,6.84,13.67,15.21,15.64,6.96,1.64,12.22-2.92,11.67-10.03-.55-7.15-8.41-15.27-15.54-16.06-6.88-.76-10.99,2.73-11.34,10.44Z"/>
  <path class="cls-4" d="M286.66,369.4c-5-14.89-9.01-29.76-14.94-43.82-3.58-8.48-10.14-15.71-15.62-23.88-5.84,4.56-11.38,8.67-16.61,13.15-1.1.94-1.42,3.23-1.44,4.91-.08,9.15.39,18.33-.06,27.46-.18,3.78-1.27,8.16-3.5,11.08-6.12,8-13.06,15.38-19.69,23-2.78,3.2-6.03,4.18-9.57,1.39-3.22-2.54-3.23-6.15-.01-10.01,5.17-6.21,10.34-12.44,15.84-18.34,3.19-3.42,4.43-7.03,4.28-11.67-.31-9.49.01-18.99-.23-28.48-.08-3.35.98-5.59,3.6-7.59,6.31-4.8,12.59-9.65,18.62-14.78,6.78-5.78,6.71-7.57.99-14.55-7.06-8.6-10.86-18.33-10.05-29.64.38-5.29,3.17-8.06,8.32-8.64,18.43-2.1,29.18,11.07,34.73,24.02,1.23,2.87-1.77,7.65-3.07,11.46-.56,1.65-1.75,3.08-2.92,5.06,5.97,3.47,11.49,7.12,17.42,9.88,2.07.96,5.19-.05,7.77-.51,4.38-.78,8.71-2.54,13.05-2.51,2.57.02,6.2,2.03,7.52,4.24,8.62,14.44,16.72,29.19,25.02,43.82,2.18,3.84.07,6.58-2.75,8.35-3.5,2.19-6.94.8-9.03-2.53-3.43-5.46-6.47-11.16-9.69-16.76-4.02-7-8.17-13.93-12.02-21.02-1.34-2.46-2.75-2.82-5.2-1.9-1.99.74-4.29.69-6.26,1.47-9.94,3.93-16.99-2.61-24.72-6.66-2.33-1.22-4.47-2.83-6.83-3.99-1.27-.62-2.83-.66-4.9.11,1.54,2.23,2.86,4.67,4.66,6.67,11.81,13.13,18.01,29,22.9,45.63,2.65,9.01,6.03,17.79,9.07,26.69.43,1.25.76,2.53,1.11,3.8,1.18,4.31-.64,7.46-4.55,8.67-3.9,1.21-6.67-1.16-8.13-4.77-1.12-2.76-1.97-5.63-3.11-8.8Z"/>
  <path class="cls-5" d="M231.52,260.47c5.41,8.25,9.25,16.67,3.21,25.61-4.2,6.22-9.12,12.12-14.55,17.3-15.13,14.46-32.41,25.83-52.34,32.51-5.29,1.77-11.39,1.99-17.03,1.61-6.46-.43-9.18-4.41-9.52-11.74-1.09-22.87,5.34-43.24,22.64-58.64,15.35-13.67,33.4-20.91,54.6-16.39,5.71,1.22,9.66,4.76,12.99,9.74Z"/>
  <path class="cls-1" d="M160.69,369.71c4.53-4.13,9.11-7.75,12.92-12.04,1.75-1.97,2.3-5.22,2.84-8,.56-2.9.12-6,.71-8.9.75-3.69,2.9-6.49,7.18-5.95,3.92.5,6.58,3.09,6.28,6.97-.9,11.52-1.61,23.15-13.18,30.29-3.74,2.31-6.56,6.07-9.89,9.07-4.1,3.7-7.41,3.86-10.34.68-3.16-3.43-2.78-6.22,1.39-10.17.6-.57,1.21-1.14,2.08-1.95Z"/>
  <path class="cls-2" d="M297.45,204.7c.36-7.32,4.48-10.81,11.36-10.05,7.13.79,14.99,8.91,15.54,16.06.55,7.11-4.7,11.66-11.67,10.03-8.37-1.97-13.49-7.16-15.23-16.03Z"/>
</svg>